HIERARCHY
ROOT Hips
{
	OFFSET 0.000000 0.000000 0.000000 
	CHANNELS 6 Xposition Yposition Zposition Zrotation Yrotation Xrotation
	JOINT LeftUpLeg
	{
		OFFSET 1.363060 -1.794630 0.839290 
		CHANNELS 3 Zrotation Yrotation Xrotation
		JOINT LeftLeg
		{
			OFFSET 2.448110 -6.726130 0.000000 
			CHANNELS 3 Zrotation Yrotation Xrotation
			JOINT LeftFoot
			{
				OFFSET 2.562200 -7.039590 0.000000 
				CHANNELS 3 Zrotation Yrotation Xrotation
				JOINT LeftToeBase
				{
					OFFSET 0.157640 -0.433110 2.322550 
					CHANNELS 3 Zrotation Yrotation Xrotation
					End Site
					{
						OFFSET 0.000000 0.000000 0.000000 
					}
				}
			}
		}
	}
	JOINT RightUpLeg
	{
		OFFSET -1.305520 -1.794630 0.839290 
		CHANNELS 3 Zrotation Yrotation Xrotation
		JOINT RightLeg
		{
			OFFSET -2.542530 -6.985550 0.000000 
			CHANNELS 3 Zrotation Yrotation Xrotation
			JOINT RightFoot
			{
				OFFSET -2.568260 -7.056230 0.000000 
				CHANNELS 3 Zrotation Yrotation Xrotation
				JOINT RightToeBase
				{
					OFFSET -0.164730 -0.452590 2.363150 
					CHANNELS 3 Zrotation Yrotation Xrotation
					End Site
					{
						OFFSET 0.000000 0.000000 0.000000 
					}
				}
			}
		}
	}
	JOINT Spine
	{
		OFFSET 0.028270 2.035590 -0.193380 
		CHANNELS 3 Zrotation Yrotation Xrotation
		JOINT Spine1
		{
			OFFSET 0.056720 2.048850 -0.042750 
			CHANNELS 3 Zrotation Yrotation Xrotation
			JOINT Neck1
			{
				OFFSET -0.054170 1.746240 0.172020 
				CHANNELS 3 Zrotation Yrotation Xrotation
				JOINT Head
				{
					OFFSET 0.104070 1.761360 -0.123970 
					CHANNELS 3 Zrotation Yrotation Xrotation
					End Site
					{
						OFFSET 0.000000 0.000000 0.000000 
					}
				}
			}
			JOINT LeftArm
			{
				OFFSET 3.362410 1.200890 -0.311210 
				CHANNELS 3 Zrotation Yrotation Xrotation
				JOINT LeftForeArm
				{
					OFFSET 4.983000 -0.000000 -0.000000 
					CHANNELS 3 Zrotation Yrotation Xrotation
					JOINT LeftHand
					{
						OFFSET 3.483560 -0.000000 -0.000000 
						CHANNELS 3 Zrotation Yrotation Xrotation
						JOINT LeftHandIndex1
						{
							OFFSET 0.715260 -0.000000 -0.000000 
							CHANNELS 3 Zrotation Yrotation Xrotation
							End Site
							{
								OFFSET 0.000000 0.000000 0.000000 
							}
						}
					}
				}
			}
			JOINT RightArm
			{
				OFFSET -3.136600 1.374050 -0.404650 
				CHANNELS 3 Zrotation Yrotation Xrotation
				JOINT RightForeArm
				{
					OFFSET -5.241900 -0.000000 -0.000000 
					CHANNELS 3 Zrotation Yrotation Xrotation
					JOINT RightHand
					{
						OFFSET -3.444170 -0.000000 -0.000000 
						CHANNELS 3 Zrotation Yrotation Xrotation
						JOINT RightHandIndex1
						{
							OFFSET -0.622530 -0.000000 -0.000000 
							CHANNELS 3 Zrotation Yrotation Xrotation
							End Site
							{
								OFFSET 0.000000 0.000000 0.000000 
							}
						}
					}
				}
			}
		}
	}
}
MOTION
Frames: 7
Frame Time: 0.041667
10.397198 18.020339 20.865593 171.507238 7.631740 -144.518563 0.696920 -17.472617 -26.238574 -1.073448 9.774881 22.781216 -0.683897 32.805783 -10.642947 1.436400 7.577600 21.438200 0.414861 10.500980 -75.281784 -11.109967 -25.029345 68.393150 -2.895113 2.143105 -32.443591 -1.572300 7.911700 -22.446200 1.047642 -2.787373 -2.485180 -1.575054 -1.515300 7.638749 7.675768 -7.842549 16.402071 0.299000 -3.117000 3.272200 -90.957800 -15.198005 34.921863 39.090355 -43.040769 -20.302800 -1.715304 -0.321818 -11.226771 -7.125000 0.000000 0.000000 63.124620 16.131495 23.064720 -27.555763 38.668127 -12.621626 0.485454 3.567989 -11.808328 7.125000 0.000000 0.000000 
10.479804 18.106566 20.844639 171.494590 7.641307 -144.429970 -0.203397 -16.215457 -27.736391 -0.700186 10.827203 25.522617 -0.668973 33.025590 -10.554445 1.393100 7.467300 21.107300 0.814913 10.762835 -74.762830 -10.776922 -24.898846 67.495527 -2.873109 2.263645 -32.353060 -1.456500 7.628000 -21.589800 0.832419 -2.203779 -2.418791 -2.313226 -1.190111 7.844569 7.358703 -8.440760 16.859818 -0.179000 -3.335400 3.651600 -90.275793 -15.717978 36.238992 38.837852 -42.877555 -20.088215 -1.768097 -0.339197 -11.311491 -7.125000 0.000000 0.000000 64.139638 15.720388 22.047540 -27.319795 38.506505 -12.494426 0.527375 3.586862 -11.459052 7.125000 0.000000 0.000000 
10.556267 18.190379 20.813703 171.563668 7.833240 -144.511286 -0.999213 -15.133188 -28.894215 -0.288850 11.797309 28.153188 -0.860480 33.695853 -11.424163 1.242600 7.068100 19.917300 1.333870 11.227444 -74.162628 -10.449435 -24.752715 66.605459 -2.842809 2.531085 -32.160996 -1.334700 7.315300 -20.653000 1.316174 -3.314880 -2.687920 -0.607291 -1.863518 7.224252 7.281909 -6.893972 16.963778 0.487600 -2.655100 3.381600 -92.517383 -12.739419 33.965239 38.830978 -42.850997 -20.101313 -1.702092 -0.378273 -10.403604 -7.125000 0.000000 0.000000 62.732640 16.275085 25.692710 -27.216528 38.398423 -12.339582 0.501511 3.658848 -11.819106 7.125000 0.000000 0.000000 
10.627903 18.273424 20.779915 171.685699 8.013147 -144.606890 -1.750118 -14.363660 -29.896463 0.178485 12.755319 30.779235 -1.116176 34.299333 -13.176347 1.158000 6.831800 19.218000 1.906487 11.589225 -73.410271 -10.047368 -24.562665 65.498207 -2.784206 2.872878 -31.807355 -1.243100 7.069500 -19.921500 1.513309 -3.645111 -2.783248 0.136379 -2.075009 7.101655 7.152878 -6.192763 16.947632 0.649200 -2.330000 3.153800 -93.668478 -11.258120 32.980067 38.636118 -42.734017 -19.962183 -1.676586 -0.359465 -9.814872 -7.125000 0.000000 0.000000 62.330199 16.568622 27.475301 -26.965074 38.184391 -12.122838 0.472042 3.686266 -11.928055 7.125000 0.000000 0.000000 
10.704475 18.358992 20.756438 171.851504 8.104209 -144.616515 -2.473415 -13.751143 -30.976166 0.730390 13.721580 33.560302 -1.071987 34.329975 -13.117716 0.866600 5.935700 16.597800 2.498751 12.023537 -72.662338 -9.669618 -24.397234 64.463307 -2.743787 3.130308 -31.586313 -1.182500 6.901200 -19.423100 1.161189 -2.682954 -2.600498 -1.111907 -1.527077 7.636533 7.249492 -7.034611 17.011294 0.258200 -2.682400 3.276600 -92.435458 -12.235002 34.741829 38.062739 -42.394761 -19.514499 -1.674173 -0.352757 -10.190120 -7.125000 0.000000 0.000000 63.809990 15.950052 25.931371 -26.645913 37.975653 -11.947207 0.481637 3.648320 -11.360465 7.125000 0.000000 0.000000 
10.777099 18.441269 20.735375 172.003182 8.280222 -144.545176 -3.077358 -13.403778 -32.218877 1.355645 14.708773 36.448991 -0.908599 34.011414 -12.729486 0.501400 4.539500 12.599700 3.018924 12.485126 -72.126700 -9.315048 -24.236071 63.489479 -2.704864 3.208077 -31.425410 -1.118800 6.719200 -18.886200 1.200573 -2.743073 -2.617595 -0.981336 -1.571925 7.750401 7.326872 -6.807580 17.161437 0.348800 -2.565000 3.365100 -92.723436 -11.582996 34.594113 37.725666 -42.175283 -19.223868 -1.714868 -0.335480 -10.181799 -7.125000 0.000000 0.000000 64.090622 16.143829 26.694199 -26.358804 37.731747 -11.722330 0.490896 3.616343 -11.098729 7.125000 0.000000 0.000000 
10.842262 18.512576 20.702026 172.341810 8.600877 -144.389033 -3.633879 -12.967195 -33.320441 2.027719 15.628039 39.257654 -0.781569 33.543519 -13.061009 0.299100 3.516500 9.720300 3.538170 13.082660 -71.727220 -8.941603 -24.080708 62.468922 -2.638689 3.285981 -31.120907 -1.081300 6.609200 -18.562600 0.979179 -2.039644 -2.498397 -1.759335 -1.184352 8.324563 7.358484 -7.372080 17.440256 0.082100 -2.784200 3.606400 -92.066112 -12.005455 35.850747 37.266570 -41.891114 -18.853151 -1.762091 -0.321684 -10.083539 -7.125000 0.000000 0.000000 65.223637 15.925524 25.825974 -25.992685 37.455506 -11.489138 0.535483 3.553266 -10.640061 7.125000 0.000000 0.000000 
